<svg viewBox="0 0 512 512" xmlns="http://www.w3.org/2000/svg" xml:space="preserve"
    style="fill-rule:evenodd;clip-rule:evenodd;stroke-linejoin:round;stroke-miterlimit:2">
    <circle cx="256.769" cy="255.506" r="256.071" style="fill:url(#a)"
        transform="translate(-.697989 .56507) scale(.99972)" />
    <path style="fill:url(#b)" d="M.104.217h512.078v512.078H.104z"
        transform="matrix(.99985 0 0 .99985 -.10436 -.217057)" />
    <path
        d="M409.214 194.549H94.531c-6.789 0-12.292 5.503-12.292 12.292v43.278c0 1.457.259 2.902.765 4.269l72.989 197.071h184.385l24.431-65.556c1.24.263 2.524.407 3.841.407h40.565c52.868 0 95.88-43.011 95.88-95.88 0-52.869-43.013-95.881-95.881-95.881Zm0 154.883H378.4l34.958-93.804c.511-1.373.774-2.827.774-4.292v-19.69c30.24 2.509 54.086 27.905 54.086 58.782 0 32.537-26.469 59.004-59.004 59.004Z"
        style="fill:#dddbe2;fill-rule:nonzero" transform="matrix(.61054 0 0 .61054 104.80573 90.918841)" />
    <path
        d="M248.185 451.459h-92.192L83.004 254.388c-.506-1.367-.766-2.812-.766-4.269v-43.278c0-6.789 5.503-12.292 12.292-12.292h153.654v256.91h.001Z"
        style="fill:#ebeaed;fill-rule:nonzero" transform="matrix(.61054 0 0 .61054 104.80573 90.918841)" />
    <path
        d="M471.028 424.864H25.342c-10.183 0-18.438 8.256-18.438 18.439s8.256 18.438 18.438 18.438h50.406l6.43 12.117c12.452 23.469 36.847 38.141 63.415 38.141h205.184c26.567 0 50.963-14.672 63.415-38.141l6.429-12.117h50.406c10.183 0 18.438-8.256 18.438-18.438 0-10.182-8.254-18.439-18.437-18.439Z"
        style="fill:#e8e8e8;fill-rule:nonzero" transform="matrix(.61054 0 0 .61054 104.80573 90.918841)" />
    <path
        d="M248.185 511.999v-87.135H25.342c-10.183 0-18.438 8.256-18.438 18.439s8.256 18.438 18.438 18.438h50.406l6.43 12.117c12.452 23.469 36.847 38.141 63.415 38.141h102.592Z"
        style="fill:#f5f5f5;fill-rule:nonzero" transform="matrix(.61054 0 0 .61054 104.80573 90.918841)" />
    <path
        d="M213.975 155.807c-4.59 0-9.144-1.962-12.312-5.763-12.752-15.303-28.958-52.154.98-82.091 4.543-4.543 10.13-12.216 6.208-26.334-2.49-8.97-7.528-15.774-7.577-15.839-5.394-7.012-4.081-17.065 2.929-22.459 7.01-5.394 17.065-4.081 22.459 2.93 12.479 16.222 28.253 54.73-1.369 84.352-7.142 7.142-9.136 14.999-6.274 24.727 2.355 8.006 7.206 14.151 7.254 14.207 5.662 6.795 4.745 16.893-2.052 22.556-2.994 2.497-6.63 3.714-10.246 3.714Z"
        style="fill:#f2f2f2;fill-rule:nonzero" transform="matrix(.61054 0 0 .61054 99.80573 90.918841)" />
    <path
        d="M298.633 155.807c-4.59 0-9.144-1.962-12.312-5.763-12.752-15.303-28.958-52.154.98-82.091 4.543-4.543 10.13-12.216 6.208-26.334-2.49-8.97-7.528-15.774-7.577-15.839-5.394-7.012-4.081-17.065 2.929-22.459 7.012-5.394 17.067-4.081 22.459 2.93 12.479 16.222 28.253 54.73-1.369 84.352-7.142 7.142-9.136 14.999-6.274 24.727 2.354 8.006 7.206 14.151 7.252 14.207 5.662 6.795 4.745 16.893-2.052 22.556-2.994 2.497-6.63 3.714-10.244 3.714Z"
        style="fill:#d8d8d8;fill-rule:nonzero" transform="matrix(.61054 0 0 .61054 99.80573 90.918841)" />
    <defs>
        <linearGradient id="a" x1="0" y1="0" x2="1" y2="0" gradientUnits="userSpaceOnUse"
            gradientTransform="matrix(512.265 513.532 -513.532 512.265 .498031 -1.3976)">
            <stop offset="0" style="stop-color:#f5af19;stop-opacity:1" />
            <stop offset="1" style="stop-color:#f12711;stop-opacity:1" />
        </linearGradient>
        <linearGradient id="b" x1="0" y1="0" x2="1" y2="0" gradientUnits="userSpaceOnUse"
            gradientTransform="scale(718.58) rotate(45.0044 -.00460483 .0041504)">
            <stop offset="0" style="stop-color:#f5af19;stop-opacity:1" />
            <stop offset="1" style="stop-color:#f12711;stop-opacity:1" />
        </linearGradient>
    </defs>
</svg>