<?xml version="1.0" encoding="UTF-8" standalone="no"?><!DOCTYPE svg PUBLIC "-//W3C//DTD SVG 1.1//EN" "http://www.w3.org/Graphics/SVG/1.1/DTD/svg11.dtd"><svg width="100%" height="100%" viewBox="0 0 3334 3334" version="1.1" xmlns="http://www.w3.org/2000/svg" xmlns:xlink="http://www.w3.org/1999/xlink" xml:space="preserve" xmlns:serif="http://www.serif.com/" style="fill-rule:evenodd;clip-rule:evenodd;stroke-linejoin:round;stroke-miterlimit:2;"><rect id="Artboard1" x="0" y="-0" width="3333.33" height="3333.33" style="fill:#ea580c;"/><g id="Handle"><g><path d="M2455.8,504.531c104.07,-104.07 273.053,-104.07 377.123,0c104.071,104.071 104.071,273.054 0,377.124c-104.07,104.07 -273.053,104.07 -377.123,0c-104.07,-104.07 -104.07,-273.053 -0,-377.124Z" style="fill:#341d12;"/><path d="M2459.98,500.351l377.124,377.124l-182.985,182.985l-377.124,-377.124l182.985,-182.985Z" style="fill:#341d12;"/></g><g id="Group"><g><path d="M2502.94,551.672c78.053,-78.053 204.79,-78.053 282.843,-0c78.053,78.052 78.053,204.79 0,282.843c-78.053,78.052 -204.79,78.052 -282.843,-0c-78.052,-78.053 -78.052,-204.791 0,-282.843Z" style="fill:#fdf9f0;"/><path d="M2507.16,547.453l282.843,282.843l-182.964,182.964l-282.843,-282.843l182.964,-182.964Z" style="fill:#fdf9f0;"/></g></g></g><g id="Rim"><circle cx="1666.67" cy="1670.83" r="1250" style="fill:#341d12;"/><circle cx="1666.67" cy="1670.83" r="1183.33" style="fill:#fdf9f0;"/><circle cx="1666.67" cy="1670.83" r="1008.33" style="fill:#341d12;"/></g><circle id="Area-chart-straight" serif:id="Area chart straight" cx="1666.67" cy="1670.83" r="941.667" style="fill:#804019;"/><clipPath id="_clip1"><circle cx="1666.67" cy="1670.83" r="941.667"/></clipPath><g clip-path="url(#_clip1)"><circle cx="1758.33" cy="1804.17" r="941.667" style="fill:#a05523;"/><path d="M2576.69,1179.69c-0,-0 119.503,117.688 119.716,118.301c41.929,120.732 36.949,433.794 34.995,524.69c-6.036,280.879 -269.035,601.032 -349.653,643.173c-365.739,191.18 -485.965,219.616 -777.861,209.98c-383.32,-12.655 -672.596,-400.999 -672.596,-400.999l297.875,-414.337l333.333,-92.917l333.333,-346.131l333.334,42.851l347.524,-284.611Z" style="fill:#c48058;"/><path d="M975.165,2350.12l254.002,-238.008l333.333,-5.787l333.333,-385.493l333.334,54.106l503.497,-186.829c-0,0 126.534,732.477 -605.584,1019.09c-559.056,218.862 -842.867,34.41 -1003,-43.189c-47.572,-23.052 -102.422,-81.336 -110.21,-89.611c-50.144,-53.282 -38.704,-124.278 -38.704,-124.278Z" style="fill:#e6b988;"/><path d="M1113.67,2478.07l448.829,-66.92l333.333,-315.996l333.334,0l413.277,-290.985c-0,-0 -26.294,601.889 -459.519,778.93c-321.33,131.314 -366.045,91.421 -783.156,99c-1.17,0.021 -126.189,-11.539 -162.626,-24.466c-65.349,-23.184 -123.472,-179.563 -123.472,-179.563Z" style="fill:#f1d6b6;"/></g></svg>