<svg xmlns="http://www.w3.org/2000/svg" fillRule="evenodd" strokeLinejoin="round" strokeMiterlimit="2"
    clipRule="evenodd" viewBox="0 0 24 24">
    <g>
        <path fill="#212121" fillRule="nonzero"
            d="M56.4 48.7c-2 1.8-4.3 3.6-6.6 5-1.5 1-2.9 1.8-4.4 3-1.1.9-2 1.8-3.2 2.7-2.7 2.6-5.2 5.6-6.9 8.8-2.2 4-3.9 8.4-4.2 13.1 0 .2.017.519.055.598.189.114.145.102.345.202 11.2 6.6 28-1.2 37.7-17.2 8.2-14 8.5-29.5 1.3-37.9-1.2 4.5-3.2 8.7-5.8 12.6-2.2 3.3-5.1 6.4-8.3 9.1z"
            transform="matrix(.3165 0 0 .3165 -3.507 -4.711)"></path>
        <path fill="#9E9E9E" fillRule="nonzero"
            d="M27.6 78.8c1.2-4.5 3.1-8.9 5.6-12.7 2.1-3.3 4.5-6.5 7.2-9.3 1.6-1.7 3.2-3.4 5.1-4.7 1.1-.9 2.3-1.4 3.5-2.3 2.5-1.7 5-3.5 7.3-5.8 2.9-2.6 5.5-5.9 7.4-9.4.9-1.8 1.7-3.5 2.3-5.6.2-.9.5-1.9.7-3 .1-.5.2-2.1.2-2.3l-.3-.2c-11.2-6.6-28 1.2-37.7 17.2-8.5 14-8.5 29.7-1.3 38.1z"
            transform="matrix(.3165 0 0 .3165 -3.507 -4.711)"></path>
    </g>
</svg>